# xmcd
#
# Track frame offsets: 
#        150
#        18348
#        40638
#        60008
#        78197
#        93363
#        111223
#        132061
#        152097
#        171114
#
# Disc length: 2556 seconds
#
# Revision: 31
# Processed by: cddbd v1.5.2PL0 Copyright (c) Steve Scherf et al.
# Submitted via: ExactAudioCopyFreeDBPlugin 1.0
#
DISCID=6509fa0a
DTITLE=周杰倫 Jay Chou - 七里香
DYEAR=2004
DGENRE=R&B
TTITLE0=我的地盤
TTITLE1=七里香
TTITLE2=藉口
TTITLE3=外婆
TTITLE4=將軍
TTITLE5=擱淺
TTITLE6=亂舞春秋
TTITLE7=困獸之鬥
TTITLE8=園遊會
TTITLE9=止戰之殤
EXTD=
EXTT0=
EXTT1=
EXTT2=
EXTT3=
EXTT4=
EXTT5=
EXTT6=
EXTT7=
EXTT8=
EXTT9=
PLAYORDER=
